<svg xmlns="http://www.w3.org/2000/svg" xmlns:xlink="http://www.w3.org/1999/xlink" version="1.1" width="256" height="256" viewBox="0 0 256 256" xml:space="preserve">

<defs>
</defs>
<g style="stroke: none; stroke-width: 0; stroke-dasharray: none; stroke-linecap: butt; stroke-linejoin: miter; stroke-miterlimit: 10; fill: none; fill-rule: nonzero; opacity: 1;" transform="translate(1.4065934065934016 1.4065934065934016) scale(2.81 2.81)" >
	<path d="M 45 0 C 29.863 0 17.593 12.271 17.593 27.407 c 0 3.665 0.735 7.154 2.041 10.349 c 0.605 1.48 1.321 2.903 2.165 4.24 c 4.55 7.213 7.528 15.282 8.335 23.699 c 0.129 1.343 1.258 2.365 2.607 2.365 H 45 h 12.26 c 1.349 0 2.478 -1.022 2.607 -2.365 c 0.807 -8.418 3.786 -16.486 8.335 -23.699 c 0.843 -1.337 1.56 -2.76 2.165 -4.24 c 1.306 -3.195 2.041 -6.684 2.041 -10.349 C 72.407 12.271 60.137 0 45 0 z M 23.103 26.72 c 0 -2.661 0.476 -5.211 1.345 -7.571 c -0.063 1.969 0.008 3.894 0.93 5.6 c 1.14 2.112 3.415 2.594 5.5 3.782 c 0.99 0.564 1.956 1.985 2.475 2.999 c 0.347 0.678 0.421 1.46 0.67 2.179 c 0.997 2.885 4.583 4.331 5.382 7.277 c 0.496 1.829 -0.226 3.733 -0.616 5.587 c -0.076 0.361 -0.131 0.726 -0.181 1.092 C 29.634 44.931 23.103 36.59 23.103 26.72 z M 46.204 48.582 c 0.339 -0.617 0.599 -1.297 0.895 -1.938 c 0.615 -1.329 1.476 -2.543 2.527 -3.562 c 1.473 -1.428 3.309 -2.473 4.631 -4.043 c 0.789 -0.937 1.392 -2.156 1.154 -3.357 c -0.33 -1.665 -2.1 -2.62 -3.749 -3.023 c -1.649 -0.402 -3.44 -0.516 -4.83 -1.491 c -0.945 -0.663 -1.607 -2.165 -2.535 -2.852 c -3.155 -2.333 -9.094 0.199 -12.292 -2.076 c -0.403 -0.287 -0.771 -0.647 -0.963 -1.103 c -0.16 -0.379 -0.188 -0.8 -0.181 -1.211 c 0.039 -2.192 2.091 -4.346 3.795 -5.725 c 0.123 -0.1 0.252 -0.197 0.401 -0.251 c 0.527 -0.192 1.091 0.212 1.405 0.677 c 0.314 0.465 0.01 2.522 0.43 2.894 s 1.702 0.427 1.953 -0.075 c 0.116 -0.232 0.082 -2.008 0.058 -2.266 c -0.111 -1.179 0.048 -2.397 0.562 -3.464 c 0.888 -1.842 2.697 -3.031 4.066 -4.55 c 1.566 -1.738 2.552 -3.977 2.828 -6.298 c 5.568 0.342 10.572 2.762 14.247 6.497 c -1.315 0.798 -3.306 1.585 -3.966 1.927 c -2.513 1.302 -3.63 4.939 -2.545 7.427 c 1.021 2.341 4.066 6.435 6.579 6.891 c 0.917 0.166 1.861 0.101 2.787 0.21 c 0.926 0.109 1.891 0.438 2.444 1.189 c 0.387 0.525 0.518 1.184 0.597 1.836 C 64.645 40.583 56.344 48.032 46.204 48.582 z" style="stroke: none; stroke-width: 1; stroke-dasharray: none; stroke-linecap: butt; stroke-linejoin: miter; stroke-miterlimit: 10; fill: rgb(0,0,0); fill-rule: nonzero; opacity: 1;" transform=" matrix(1 0 0 1 0 0) " stroke-linecap="round" />
	<polyline points="33.27,79.03 33.27,71 56.73,71 56.73,79.03 " style="stroke: none; stroke-width: 1; stroke-dasharray: none; stroke-linecap: butt; stroke-linejoin: miter; stroke-miterlimit: 10; fill: rgb(0,0,0); fill-rule: nonzero; opacity: 1;" transform="  matrix(1 0 0 1 0 0) "/>
	<path d="M 56.728 81.965 v 2.629 c 0 2.986 -2.42 5.406 -5.406 5.406 H 38.678 c -2.986 0 -5.406 -2.42 -5.406 -5.406 v -2.629 H 49.27" style="stroke: none; stroke-width: 1; stroke-dasharray: none; stroke-linecap: butt; stroke-linejoin: miter; stroke-miterlimit: 10; fill: rgb(0,0,0); fill-rule: nonzero; opacity: 1;" transform=" matrix(1 0 0 1 0 0) " stroke-linecap="round" />
</g>
</svg>