<svg xmlns="http://www.w3.org/2000/svg" xmlns:xlink="http://www.w3.org/1999/xlink" version="1.1" width="256" height="256" viewBox="0 0 256 256" xml:space="preserve">

<defs>
</defs>
<g style="stroke: none; stroke-width: 0; stroke-dasharray: none; stroke-linecap: butt; stroke-linejoin: miter; stroke-miterlimit: 10; fill: none; fill-rule: nonzero; opacity: 1;" transform="translate(1.4065934065934016 1.4065934065934016) scale(2.81 2.81)" >
	<path d="M 48.006 71.589 h -6.012 c -4.592 0 -8.315 3.723 -8.315 8.315 V 90 h 22.643 V 79.904 C 56.321 75.312 52.599 71.589 48.006 71.589 z" style="stroke: none; stroke-width: 1; stroke-dasharray: none; stroke-linecap: butt; stroke-linejoin: miter; stroke-miterlimit: 10; fill: rgb(0,0,0); fill-rule: nonzero; opacity: 1;" transform=" matrix(1 0 0 1 0 0) " stroke-linecap="round" />
	<path d="M 38.339 56.912 v 2.821 c 0 3.679 2.982 6.661 6.661 6.661 s 6.661 -2.982 6.661 -6.661 v -2.821 c 0 -3.679 -2.982 -6.661 -6.661 -6.661 S 38.339 53.234 38.339 56.912 z" style="stroke: none; stroke-width: 1; stroke-dasharray: none; stroke-linecap: butt; stroke-linejoin: miter; stroke-miterlimit: 10; fill: rgb(0,0,0); fill-rule: nonzero; opacity: 1;" transform=" matrix(1 0 0 1 0 0) " stroke-linecap="round" />
	<path d="M 47.118 42.551 c 1 0 1.811 -0.811 1.811 -1.811 v -1.559 v -0.348 h -7.857 v 0.348 v 1.559 c 0 1 0.811 1.811 1.811 1.811 H 47.118 z" style="stroke: none; stroke-width: 1; stroke-dasharray: none; stroke-linecap: butt; stroke-linejoin: miter; stroke-miterlimit: 10; fill: rgb(0,0,0); fill-rule: nonzero; opacity: 1;" transform=" matrix(1 0 0 1 0 0) " stroke-linecap="round" />
	<path d="M 37.228 27.08 c 1.524 2.416 2.522 5.119 2.792 7.939 c 0.043 0.45 0.421 0.792 0.873 0.792 h 8.213 c 0.452 0 0.83 -0.342 0.873 -0.792 c 0.27 -2.82 1.268 -5.522 2.792 -7.939 c 0.892 -1.415 1.409 -3.09 1.409 -4.887 c 0 -5.07 -4.11 -9.181 -9.181 -9.181 s -9.181 4.11 -9.181 9.181 C 35.819 23.99 36.336 25.665 37.228 27.08 z" style="stroke: none; stroke-width: 1; stroke-dasharray: none; stroke-linecap: butt; stroke-linejoin: miter; stroke-miterlimit: 10; fill: rgb(0,0,0); fill-rule: nonzero; opacity: 1;" transform=" matrix(1 0 0 1 0 0) " stroke-linecap="round" />
	<path d="M 78.993 53.698 h -6.012 c -4.592 0 -8.315 3.723 -8.315 8.315 v 10.096 h 22.643 V 62.013 C 87.308 57.421 83.585 53.698 78.993 53.698 z" style="stroke: none; stroke-width: 1; stroke-dasharray: none; stroke-linecap: butt; stroke-linejoin: miter; stroke-miterlimit: 10; fill: rgb(0,0,0); fill-rule: nonzero; opacity: 1;" transform=" matrix(1 0 0 1 0 0) " stroke-linecap="round" />
	<path d="M 75.987 48.503 c 3.679 0 6.661 -2.982 6.661 -6.661 v -2.821 c 0 -3.679 -2.982 -6.661 -6.661 -6.661 s -6.661 2.982 -6.661 6.661 v 2.821 C 69.326 45.521 72.308 48.503 75.987 48.503 z" style="stroke: none; stroke-width: 1; stroke-dasharray: none; stroke-linecap: butt; stroke-linejoin: miter; stroke-miterlimit: 10; fill: rgb(0,0,0); fill-rule: nonzero; opacity: 1;" transform=" matrix(1 0 0 1 0 0) " stroke-linecap="round" />
	<path d="M 17.019 53.698 h -6.012 c -4.592 0 -8.315 3.723 -8.315 8.315 v 10.096 h 22.643 V 62.013 C 25.335 57.421 21.612 53.698 17.019 53.698 z" style="stroke: none; stroke-width: 1; stroke-dasharray: none; stroke-linecap: butt; stroke-linejoin: miter; stroke-miterlimit: 10; fill: rgb(0,0,0); fill-rule: nonzero; opacity: 1;" transform=" matrix(1 0 0 1 0 0) " stroke-linecap="round" />
	<path d="M 14.013 48.503 c 3.679 0 6.661 -2.982 6.661 -6.661 v -2.821 c 0 -3.679 -2.982 -6.661 -6.661 -6.661 s -6.661 2.982 -6.661 6.661 v 2.821 C 7.353 45.521 10.335 48.503 14.013 48.503 z" style="stroke: none; stroke-width: 1; stroke-dasharray: none; stroke-linecap: butt; stroke-linejoin: miter; stroke-miterlimit: 10; fill: rgb(0,0,0); fill-rule: nonzero; opacity: 1;" transform=" matrix(1 0 0 1 0 0) " stroke-linecap="round" />
	<path d="M 45 8.373 c 0.558 0 1.011 -0.453 1.011 -1.011 V 1.011 C 46.011 0.453 45.558 0 45 0 s -1.011 0.453 -1.011 1.011 v 6.351 C 43.989 7.921 44.442 8.373 45 8.373 z" style="stroke: none; stroke-width: 1; stroke-dasharray: none; stroke-linecap: butt; stroke-linejoin: miter; stroke-miterlimit: 10; fill: rgb(0,0,0); fill-rule: nonzero; opacity: 1;" transform=" matrix(1 0 0 1 0 0) " stroke-linecap="round" />
	<path d="M 55.168 11.279 c 0.28 0 0.56 -0.117 0.76 -0.344 l 3.873 -4.414 c 0.368 -0.42 0.326 -1.059 -0.094 -1.427 c -0.419 -0.368 -1.058 -0.327 -1.427 0.093 L 54.407 9.6 c -0.368 0.42 -0.326 1.059 0.094 1.427 C 54.693 11.196 54.931 11.279 55.168 11.279 z" style="stroke: none; stroke-width: 1; stroke-dasharray: none; stroke-linecap: butt; stroke-linejoin: miter; stroke-miterlimit: 10; fill: rgb(0,0,0); fill-rule: nonzero; opacity: 1;" transform=" matrix(1 0 0 1 0 0) " stroke-linecap="round" />
	<path d="M 34.072 10.934 c 0.199 0.228 0.479 0.344 0.76 0.344 c 0.237 0 0.475 -0.082 0.667 -0.251 c 0.42 -0.368 0.461 -1.007 0.093 -1.427 l -3.873 -4.414 c -0.368 -0.42 -1.007 -0.462 -1.427 -0.093 c -0.42 0.368 -0.461 1.007 -0.093 1.427 L 34.072 10.934 z" style="stroke: none; stroke-width: 1; stroke-dasharray: none; stroke-linecap: butt; stroke-linejoin: miter; stroke-miterlimit: 10; fill: rgb(0,0,0); fill-rule: nonzero; opacity: 1;" transform=" matrix(1 0 0 1 0 0) " stroke-linecap="round" />
	<path d="M 66.392 19.666 c 0 -0.558 -0.452 -1.011 -1.011 -1.011 H 59.48 c -0.559 0 -1.011 0.453 -1.011 1.011 c 0 0.558 0.452 1.011 1.011 1.011 h 5.901 C 65.94 20.677 66.392 20.224 66.392 19.666 z" style="stroke: none; stroke-width: 1; stroke-dasharray: none; stroke-linecap: butt; stroke-linejoin: miter; stroke-miterlimit: 10; fill: rgb(0,0,0); fill-rule: nonzero; opacity: 1;" transform=" matrix(1 0 0 1 0 0) " stroke-linecap="round" />
	<path d="M 30.52 18.655 H 24.62 c -0.558 0 -1.011 0.453 -1.011 1.011 c 0 0.558 0.453 1.011 1.011 1.011 h 5.901 c 0.558 0 1.011 -0.453 1.011 -1.011 C 31.532 19.107 31.079 18.655 30.52 18.655 z" style="stroke: none; stroke-width: 1; stroke-dasharray: none; stroke-linecap: butt; stroke-linejoin: miter; stroke-miterlimit: 10; fill: rgb(0,0,0); fill-rule: nonzero; opacity: 1;" transform=" matrix(1 0 0 1 0 0) " stroke-linecap="round" />
</g>
</svg>